<svg width="76" height="49" viewBox="0 0 76 49" fill="none" xmlns="http://www.w3.org/2000/svg">
<path d="M35.1572 33.7714L35.138 31.5618C35.138 30.7818 35.7739 30.148 36.5618 30.1428H39.4478C40.2395 30.1428 40.8813 30.7781 40.8813 31.5618L40.9005 33.7809C40.9003 34.4432 41.4343 34.9845 42.103 35H44.0271C45.9451 35 47.5 33.4607 47.5 31.5618V22.8378C47.4898 22.0908 47.1355 21.3893 46.538 20.933L39.9577 15.6853C38.8049 14.7716 37.1662 14.7716 36.0134 15.6853L29.462 20.9426C28.8623 21.397 28.5074 22.0997 28.5 22.8474V31.5618C28.5 33.4607 30.0549 35 31.9729 35H33.897C34.5824 35 35.138 34.4499 35.138 33.7714" stroke="#97A2B0" stroke-width="1.5" stroke-linecap="round" stroke-linejoin="round"/>
<path d="M35.0905 26.8896H40.9097" stroke="#97A2B0" stroke-width="1.5" stroke-linecap="round" stroke-linejoin="round"/>
</svg>
