<svg width="375" height="825" viewBox="0 0 375 825" fill="none" xmlns="http://www.w3.org/2000/svg">
<g clip-path="url(#clip0_1_2860)">
<rect width="375" height="825" fill="white"/>
<rect x="-1" width="375" height="812" fill="#70B9BE"/>
<path d="M500.913 -153.589C488.494 -150.136 461.665 -129.229 453.699 -73.2228C443.741 -3.21546 421.968 140.394 332.75 107.969C243.531 75.5429 191.773 16.9227 218.818 -8.95958C245.862 -34.8419 303.539 21.1429 240.077 97.6701C176.615 174.197 40.4773 164.219 -15.6871 61.1916" stroke="#3DA0A7"/>
<path d="M517 596.746C531.081 555.021 533.714 462.325 478.812 425.03C423.909 387.734 364.701 388.451 290 425.03C214.5 462 119.5 455 139 387.246C165.56 294.959 177.5 258.746 111 281.246C44.5 303.746 73.4765 243.629 -1 253.746C-60.5812 261.839 -121 350.746 -172 246.746" stroke="#3DA0A7"/>
<circle opacity="0.1" cx="187" cy="292" r="170" fill="white"/>
<path d="M236.055 347.476C233.315 347.476 233.315 351.837 236.055 351.837C238.795 351.745 238.795 347.476 236.055 347.476Z" fill="#FFF1CE"/>
<path d="M74.0552 308.867C71.3149 308.867 71.3149 313.229 74.0552 313.229C76.7954 313.136 76.7954 308.867 74.0552 308.867Z" fill="#FFF1CE"/>
<path d="M303.581 392.213C302.394 392.492 301.206 393.791 300.476 394.44C299.106 395.647 297.644 396.575 296 397.41C296.548 398.245 297.827 398.709 298.74 398.895C299.745 399.081 300.658 398.895 301.663 398.709C302.12 398.617 302.577 398.431 303.033 398.245C304.403 397.41 306.778 393.976 305.043 392.584C304.586 392.213 304.038 392.12 303.581 392.213Z" fill="#7CA661"/>
<path d="M170.016 335.295H169.925C169.377 335.388 168.92 336.037 169.012 336.594C169.012 337.151 169.377 337.801 169.925 337.893H170.016C170.839 338.079 171.661 337.522 171.661 336.594C171.661 335.666 170.839 335.202 170.016 335.295Z" fill="#FFF1CE"/>
<path d="M185.658 108.639C184.654 107.711 184.197 106.041 183.74 104.649C183.009 105.391 182.096 105.855 181 105.948C181.457 107.99 182.644 109.846 184.471 110.774C184.562 110.124 185.11 109.103 185.658 108.639Z" fill="#AEDC90"/>
<path d="M77.8496 222.506C75.3835 222.506 75.3835 226.404 77.8496 226.404C80.3158 226.404 80.3158 222.506 77.8496 222.506Z" fill="#FFF1CE"/>
<path d="M21.8496 238.762C19.3835 238.762 19.3835 242.66 21.8496 242.66C24.3158 242.66 24.3158 238.762 21.8496 238.762Z" fill="#FFF1CE"/>
<path d="M157.129 225.012L154.754 222.506C154.754 222.506 154.389 228.539 149 230.766L151.192 232.436C151.192 232.436 155.759 230.58 157.129 225.012Z" fill="#AEDC90"/>
<path d="M302.85 200.154C300.383 200.154 300.383 204.052 302.85 204.052C305.316 204.052 305.316 200.154 302.85 200.154Z" fill="#FFF1CE"/>
<path d="M65.7544 183.903C65.1151 183.253 64.293 182.882 63.3796 182.882C62.4662 182.882 61.5528 183.253 61.0047 183.903C60.4567 184.552 60 185.48 60 186.316C60 187.244 60.3654 188.172 61.0047 188.728C61.6441 189.378 62.4662 189.749 63.3796 189.749C64.293 189.749 65.2064 189.378 65.7544 188.728C66.3938 188.172 66.7592 187.151 66.7592 186.316C66.6678 185.48 66.3938 184.552 65.7544 183.903Z" fill="#FFF1CE"/>
<path d="M212 165.609C214.284 176.931 220.951 186.676 227.437 196.141C229.994 199.854 232.734 204.494 236.479 207.185C237.575 205.793 232.643 198.833 231.729 197.255C229.72 193.636 227.619 190.109 225.427 186.583C221.134 179.53 216.658 172.57 212 165.609Z" fill="#7CA661"/>
<path d="M227.071 189.552C225.245 182.778 224.24 175.725 221.408 169.229C229.537 180.458 235.475 192.893 238.58 207.092C236.388 205.978 234.744 205.236 233.282 203.194C230.177 199.297 228.35 194.378 227.071 189.552Z" fill="#AEDC90"/>
<path d="M214.832 186.675C217.389 191.315 220.495 195.584 224.331 199.204C226.797 201.524 234.927 208.484 238.489 207.185C235.84 203.287 230.268 199.111 226.797 196.048C222.961 192.8 218.942 189.645 214.832 186.675Z" fill="#AEDC90"/>
<path d="M252.007 211.175C252.19 219.528 240.589 224.261 234.104 222.033C231.273 221.105 229.446 218.878 229.903 214.98C230.359 211.175 232.095 207.463 234.926 205.05C237.849 202.638 241.868 201.524 245.522 202.73C249.084 203.937 251.916 207.371 252.007 211.175Z" fill="#EA7273"/>
<path d="M252.007 211.176C252.19 219.528 240.589 224.261 234.104 222.033C234.287 221.941 234.561 221.848 234.835 221.662C237.941 220.549 240.955 220.27 243.786 218.321C247.075 216.001 249.449 211.825 248.353 207.927C247.805 205.979 246.527 204.401 245.43 202.73C249.084 203.937 251.916 207.371 252.007 211.176Z" fill="#EA6061"/>
<path d="M232.369 216.651C232.552 216.929 232.734 217.208 233.008 217.393C233.374 217.672 233.922 217.764 234.47 217.672C235.84 217.486 236.936 216.465 237.393 215.166C237.849 213.867 237.667 212.382 237.027 211.268C236.114 209.598 234.013 208.763 232.734 210.526C231.456 212.104 231.364 214.888 232.369 216.651Z" fill="#EA8889"/>
<path d="M239.493 207.092C239.219 206.628 238.671 206.442 238.123 206.442C237.758 206.442 237.21 206.535 236.936 206.814C236.57 207.092 236.296 207.649 236.479 208.206C236.57 208.855 236.936 209.319 237.575 209.505C238.123 209.69 238.763 209.598 239.219 209.134C239.767 208.67 239.859 207.742 239.493 207.092Z" fill="#EA8889"/>
<path d="M238.854 210.062C238.854 210.062 238.763 210.062 238.671 210.062H238.58C238.489 210.062 238.397 210.062 238.306 210.062C238.306 210.062 238.215 210.062 238.215 210.155C237.94 210.248 237.849 210.526 237.758 210.804C237.758 210.99 237.758 211.176 237.758 211.361V211.454C237.849 211.64 238.032 211.825 238.215 211.918C238.306 212.011 238.489 212.011 238.58 212.011C239.128 212.196 239.676 211.732 239.767 211.083C239.859 210.619 239.402 210.062 238.854 210.062Z" fill="#EA8889"/>
<path d="M244.517 219.435C244.7 220.27 246.161 220.177 246.892 220.363C247.897 220.641 248.536 221.662 248.536 222.683C248.536 223.611 248.079 224.539 248.536 225.281C248.993 225.931 249.997 225.931 250.728 225.838C249.997 225.838 249.267 225.189 249.084 224.446C248.901 223.704 249.267 222.869 249.358 222.126C249.541 221.012 249.267 219.713 248.536 218.878C247.714 218.043 244.7 217.115 244.426 218.971C244.517 219.249 244.517 219.342 244.517 219.435Z" fill="#EA6061"/>
<path d="M249.815 212.568C249.541 213.032 249.541 213.496 249.358 213.96C249.176 214.609 248.81 215.259 248.445 215.908C247.714 217.022 246.801 217.765 245.705 218.6C245.431 218.785 245.613 219.249 245.979 219.064C247.257 218.507 248.262 217.393 248.993 216.28C249.632 215.352 250.546 213.681 250.18 212.568C250.089 212.382 249.906 212.475 249.815 212.568Z" fill="white"/>
<path d="M249.906 208.762C249.815 208.669 249.724 208.669 249.632 208.669H249.541C249.45 208.669 249.45 208.669 249.45 208.762C249.267 209.133 249.541 209.412 249.724 209.783C249.906 210.247 249.906 210.711 249.906 211.268C249.906 211.639 250.454 211.639 250.454 211.268C250.454 210.34 250.272 209.597 249.906 208.762Z" fill="white"/>
<path d="M50.9352 334.267C49.3824 335.195 47.921 336.03 46.3682 336.958C45.4548 337.515 44.5414 337.979 43.902 338.814C43.1713 339.65 42.4406 341.134 43.628 341.877C44.8154 342.619 47.0076 341.413 48.0123 340.763C49.0171 340.114 50.0218 339.371 50.6612 338.258C51.94 336.216 50.7525 334.36 50.9352 334.267Z" fill="#7CA661"/>
<path d="M93.1511 217.279C93.6078 219.599 95.252 221.455 97.2614 222.661C99.1796 223.775 101.28 223.961 103.473 223.868C103.564 223.868 103.655 223.868 103.747 223.868C103.747 223.775 103.747 223.682 103.747 223.589C103.564 220.62 102.559 217.836 100.915 215.33C99.3623 213.01 97.2614 211.154 95.1606 209.298C93.6078 211.618 92.6031 214.68 93.1511 217.279Z" fill="#AEDC90"/>
<path d="M93.1511 217.279C93.6078 219.599 95.252 221.455 97.2614 222.661C99.1796 223.775 101.28 223.961 103.473 223.868C103.564 223.868 103.655 223.868 103.747 223.868C94.2472 218.485 95.1606 209.298 95.1606 209.298C93.6078 211.618 92.6031 214.68 93.1511 217.279Z" fill="#7CA661"/>
<path d="M95.5258 213.938C95.9825 216.165 97.2613 218.393 98.7228 220.063C100.002 221.548 101.554 222.94 103.381 223.868C103.472 223.868 103.564 223.868 103.655 223.868C103.655 223.775 103.655 223.682 103.655 223.59C101.92 222.569 100.276 221.455 98.9968 219.785C98.2661 218.857 97.6267 217.929 97.0786 216.908C96.5306 215.887 96.2566 214.866 95.8912 213.845C95.7999 213.66 95.5258 213.753 95.5258 213.938Z" fill="#39700B"/>
<path d="M273.595 164.446C273.139 166.766 271.495 168.622 269.485 169.829C267.567 170.943 265.466 171.128 263.274 171.035C263.183 171.035 263.091 171.035 263 171.035C263 170.943 263 170.85 263 170.757C263.183 167.787 264.187 165.003 265.832 162.498C267.384 160.177 269.485 158.321 271.586 156.465C273.139 158.785 274.143 161.848 273.595 164.446Z" fill="#AEDC90"/>
<path d="M273.595 164.446C273.139 166.766 271.495 168.622 269.485 169.829C267.567 170.943 265.466 171.128 263.274 171.035C263.183 171.035 263.091 171.035 263 171.035C272.499 165.653 271.586 156.465 271.586 156.465C273.139 158.785 274.143 161.848 273.595 164.446Z" fill="#7CA661"/>
<path d="M271.221 161.106C270.764 163.333 269.485 165.56 268.024 167.231C266.745 168.715 265.192 170.107 263.365 171.035C263.274 171.035 263.183 171.035 263.091 171.035C263.091 170.943 263.091 170.85 263.091 170.757C264.827 169.736 266.471 168.623 267.75 166.952C268.481 166.024 269.12 165.096 269.668 164.075C270.216 163.054 270.49 162.034 270.855 161.013C270.947 160.827 271.221 160.92 271.221 161.106Z" fill="#39700B"/>
<path d="M102.4 337.779H93.4V379.537H102.4V337.779Z" fill="#D2953D"/>
<path d="M99.5 337.779H93.4V379.537H99.5V337.779Z" fill="#EDC75E"/>
<path d="M110.1 342.352H101.1V384.11H110.1V342.352Z" fill="#D2953D"/>
<path d="M107.2 342.352H101.1V384.11H107.2V342.352Z" fill="#EDC75E"/>
<path d="M122.43 338.825L113.554 337.315L106.768 378.501L115.645 380.011L122.43 338.825Z" fill="#D2953D"/>
<path d="M119.544 338.379L113.528 337.356L106.742 378.542L112.759 379.565L119.544 338.379Z" fill="#EDC75E"/>
<path d="M125.856 343.587L116.858 343.786L117.75 385.535L126.748 385.337L125.856 343.587Z" fill="#D2953D"/>
<path d="M122.955 343.619L116.857 343.753L117.749 385.503L123.847 385.369L122.955 343.619Z" fill="#EDC75E"/>
<path d="M134.455 339.523L125.457 339.722L126.35 381.471L135.348 381.273L134.455 339.523Z" fill="#D2953D"/>
<path d="M131.555 339.554L125.456 339.689L126.349 381.439L132.448 381.304L131.555 339.554Z" fill="#EDC75E"/>
<path d="M143.61 346.597L134.659 345.647L130.392 387.18L139.344 388.129L143.61 346.597Z" fill="#D2953D"/>
<path d="M140.709 346.344L134.642 345.701L130.376 387.233L136.443 387.877L140.709 346.344Z" fill="#EDC75E"/>
<path d="M135.6 366.939C135.6 370.19 127.2 372.832 116.9 372.832C106.6 372.832 98.2 370.19 98.2 366.939H91L95.2 423.023H138.7L142.9 366.939H135.6Z" fill="#DB5955"/>
<path d="M237.9 408.29C238.6 405.039 238.9 401.686 238.9 398.232C238.9 371.714 221.9 353.426 195.8 353.426C169.7 353.426 138.2 371.714 138.2 398.232C138.2 401.686 127.6 405.039 128.3 408.29H237.9Z" fill="#935A40"/>
<path d="M255.6 391.221C256.9 390.713 257.8 389.393 257.8 387.869C257.8 385.837 256.2 384.211 254.2 384.211C252.2 384.211 250.6 385.837 250.6 387.869C250.6 387.97 250.6 388.072 250.7 388.173H218.9V394.168H250.7C250.7 394.269 250.6 394.371 250.6 394.473C250.6 396.505 252.2 398.13 254.2 398.13C256.2 398.13 257.8 396.505 257.8 394.473C257.8 393.05 256.9 391.831 255.6 391.221Z" fill="white"/>
<path d="M242.1 391.222C242.1 399.553 227.1 406.36 218.9 406.36C210.7 406.36 204 399.553 204 391.222C204 382.89 210.7 376.083 218.9 376.083C227.1 376.083 242.1 382.89 242.1 391.222Z" fill="#BC7253"/>
<path d="M158.3 384.312C158.3 384.312 147.9 389.596 150 396.301C151.4 400.772 183.4 398.638 184.8 394.269C186.2 390.002 158.6 388.986 158.6 388.986L158.3 384.312Z" fill="#BC7253"/>
<path d="M143.8 412.354C147.556 412.354 150.6 409.261 150.6 405.445C150.6 401.63 147.556 398.537 143.8 398.537C140.044 398.537 137 401.63 137 405.445C137 409.261 140.044 412.354 143.8 412.354Z" fill="#DB5955"/>
<path d="M142.2 407.579C144.464 407.579 146.3 405.714 146.3 403.414C146.3 401.113 144.464 399.248 142.2 399.248C139.936 399.248 138.1 401.113 138.1 403.414C138.1 405.714 139.936 407.579 142.2 407.579Z" fill="#DD7260"/>
<path d="M159 406.36C159 409.611 156.4 412.354 153.1 412.354C149.8 412.354 147.2 409.713 147.2 406.36C147.2 403.108 149.8 400.365 153.1 400.365C156.4 400.365 159 403.108 159 406.36Z" fill="#D2953D"/>
<path d="M151.8 408.696C153.678 408.696 155.2 407.15 155.2 405.242C155.2 403.334 153.678 401.788 151.8 401.788C149.922 401.788 148.4 403.334 148.4 405.242C148.4 407.15 149.922 408.696 151.8 408.696Z" fill="#EDC75E"/>
<path d="M165.8 412.354C169.556 412.354 172.6 409.261 172.6 405.445C172.6 401.63 169.556 398.537 165.8 398.537C162.044 398.537 159 401.63 159 405.445C159 409.261 162.044 412.354 165.8 412.354Z" fill="#DB5955"/>
<path d="M164.2 407.579C166.464 407.579 168.3 405.714 168.3 403.414C168.3 401.113 166.464 399.248 164.2 399.248C161.936 399.248 160.1 401.113 160.1 403.414C160.1 405.714 161.936 407.579 164.2 407.579Z" fill="#DD7260"/>
<path d="M175.1 412.354C178.358 412.354 181 409.67 181 406.36C181 403.049 178.358 400.365 175.1 400.365C171.841 400.365 169.2 403.049 169.2 406.36C169.2 409.67 171.841 412.354 175.1 412.354Z" fill="#D2953D"/>
<path d="M173.8 408.696C175.678 408.696 177.2 407.15 177.2 405.242C177.2 403.334 175.678 401.788 173.8 401.788C171.922 401.788 170.4 403.334 170.4 405.242C170.4 407.15 171.922 408.696 173.8 408.696Z" fill="#EDC75E"/>
<path d="M187.8 412.354C191.556 412.354 194.6 409.261 194.6 405.445C194.6 401.63 191.556 398.537 187.8 398.537C184.044 398.537 181 401.63 181 405.445C181 409.261 184.044 412.354 187.8 412.354Z" fill="#DB5955"/>
<path d="M186.1 407.579C188.364 407.579 190.2 405.714 190.2 403.414C190.2 401.113 188.364 399.248 186.1 399.248C183.836 399.248 182 401.113 182 403.414C182 405.714 183.836 407.579 186.1 407.579Z" fill="#DD7260"/>
<path d="M197.1 412.354C200.358 412.354 203 409.67 203 406.36C203 403.049 200.358 400.365 197.1 400.365C193.841 400.365 191.2 403.049 191.2 406.36C191.2 409.67 193.841 412.354 197.1 412.354Z" fill="#D2953D"/>
<path d="M195.7 408.696C197.578 408.696 199.1 407.15 199.1 405.242C199.1 403.334 197.578 401.788 195.7 401.788C193.822 401.788 192.3 403.334 192.3 405.242C192.3 407.15 193.822 408.696 195.7 408.696Z" fill="#EDC75E"/>
<path d="M209.8 412.354C213.556 412.354 216.6 409.261 216.6 405.445C216.6 401.63 213.556 398.537 209.8 398.537C206.044 398.537 203 401.63 203 405.445C203 409.261 206.044 412.354 209.8 412.354Z" fill="#DB5955"/>
<path d="M208.1 407.579C210.364 407.579 212.2 405.714 212.2 403.414C212.2 401.113 210.364 399.248 208.1 399.248C205.836 399.248 204 401.113 204 403.414C204 405.714 205.836 407.579 208.1 407.579Z" fill="#DD7260"/>
<path d="M224.9 406.36C224.9 409.611 222.3 412.354 219 412.354C215.8 412.354 213.1 409.713 213.1 406.36C213.1 403.108 215.7 400.365 219 400.365C222.3 400.467 224.9 403.108 224.9 406.36Z" fill="#D2953D"/>
<path d="M217.7 408.696C219.578 408.696 221.1 407.15 221.1 405.242C221.1 403.334 219.578 401.788 217.7 401.788C215.822 401.788 214.3 403.334 214.3 405.242C214.3 407.15 215.822 408.696 217.7 408.696Z" fill="#EDC75E"/>
<path d="M231.7 412.354C235.456 412.354 238.5 409.261 238.5 405.445C238.5 401.63 235.456 398.537 231.7 398.537C227.944 398.537 224.9 401.63 224.9 405.445C224.9 409.261 227.944 412.354 231.7 412.354Z" fill="#DB5955"/>
<path d="M230.1 407.579C232.364 407.579 234.2 405.714 234.2 403.414C234.2 401.113 232.364 399.248 230.1 399.248C227.836 399.248 226 401.113 226 403.414C226 405.714 227.836 407.579 230.1 407.579Z" fill="#DD7260"/>
<path d="M241 412.354C244.258 412.354 246.9 409.67 246.9 406.36C246.9 403.049 244.258 400.365 241 400.365C237.742 400.365 235.1 403.049 235.1 406.36C235.1 409.67 237.742 412.354 241 412.354Z" fill="#D2953D"/>
<path d="M239.7 408.696C241.578 408.696 243.1 407.15 243.1 405.242C243.1 403.334 241.578 401.788 239.7 401.788C237.822 401.788 236.3 403.334 236.3 405.242C236.3 407.15 237.822 408.696 239.7 408.696Z" fill="#EDC75E"/>
<path d="M245 423.327H128.1C120 423.327 113.4 416.622 113.4 408.392H259.7C259.7 416.622 253.1 423.327 245 423.327Z" fill="white"/>
<path d="M102.712 286.102C93.8435 284.211 87.0513 281.431 78.9857 276.391C71.6278 271.75 70.7529 263.24 77.2089 257.513C77.2456 257.42 77.3753 257.364 77.3753 257.364C78.2077 256.618 79.2654 256.399 80.3256 256.724C92.3771 260.135 103.821 264.818 114.845 270.851C115.832 271.364 116.412 272.362 116.547 273.396C116.51 273.489 116.566 273.621 116.566 273.621C117.591 282.3 111.171 287.934 102.712 286.102Z" fill="#EADFD1"/>
<path d="M116.756 273.644C116.792 273.55 116.736 273.419 116.736 273.419C116.638 272.295 116.022 271.392 115.036 270.881C104.024 264.862 92.5906 260.189 80.5512 256.787C80.2723 256.673 79.8639 256.614 79.5116 256.687C79.475 256.781 79.475 256.781 79.4383 256.874C79.2036 258.296 79.1181 259.888 79.2553 261.462C79.2969 262.455 79.8205 263.319 80.5837 263.848C92.0512 272.005 99.952 275.234 113.302 277.22C114.212 277.375 115.083 277.081 115.785 276.392C116.118 276.094 116.487 275.703 116.819 275.405C116.854 274.768 116.758 274.187 116.756 273.644Z" fill="#D1C3B4"/>
<path d="M86.3453 250.53C82.8111 249.084 78.8294 251.256 78.3084 255.061C78.0736 256.486 77.9881 258.079 78.1253 259.656C78.167 260.65 78.6908 261.516 79.4545 262.046C90.9287 270.215 98.8341 273.449 112.192 275.438C113.103 275.593 113.974 275.298 114.676 274.608C116.673 272.819 118.112 270.801 119.086 268.593C120.06 266.385 118.941 265.385 116.758 262.971L86.3453 250.53Z" fill="#DB5955"/>
<path d="M116.765 262.955C116.765 262.955 111.902 259.121 101.769 255.519C97.976 254.185 86.4503 250.557 86.4503 250.557C81.3751 248.915 79.3247 251.116 78.4686 254.674C78.2534 256.323 78.6892 258.238 80.0302 259.22C92.2147 268.871 100.591 269.8 115.302 271.909C116.027 271.989 117.509 271.509 118.026 270.744C118.412 270.033 118.799 269.323 119.185 268.613C120.066 266.368 118.852 264.786 116.765 262.955Z" fill="#E18668"/>
<path d="M82.2896 264.026L81.1889 260.191C82.5674 255.843 88.3171 252.52 90.1419 251.739C89.2637 251.489 88.4224 251.144 87.8247 251.009C80.3806 255.057 79.821 258.976 79.7841 259.07L80.3239 262.675C80.9045 263.131 81.6155 263.532 82.2896 264.026Z" fill="#F7E4D8"/>
<path d="M116.754 262.881C116.754 262.881 116.66 262.843 116.51 262.672C111.245 268.058 110.83 271.057 110.756 271.245L111.654 275.328C111.841 275.404 111.972 275.348 112.159 275.425C112.571 275.484 113.019 275.449 113.374 275.376L112.533 271.426C113.306 268.901 115.685 266.159 117.844 263.982C117.486 263.508 117.185 263.167 116.754 262.881Z" fill="#F7E4D8"/>
<path d="M96.366 271.505L95.5453 267.783C97.0551 263.378 103.229 258.151 104.995 256.69C104.153 256.346 103.312 256.001 102.433 255.751C93.917 263.076 93.2833 267.185 93.2464 267.279L93.7101 270.527C94.5519 270.871 95.4873 271.254 96.366 271.505Z" fill="#F7E4D8"/>
<path d="M87.6361 264.341C89.0535 260.447 95.2234 255.77 98.107 254.222C97.1357 253.934 96.071 253.607 95.0431 253.186C85.7633 258.881 85.3908 262.876 85.2236 263.026L85.6303 266.14C86.5845 266.749 87.4821 267.225 88.3428 267.796L87.6361 264.341Z" fill="#F7E4D8"/>
<path d="M104.16 269.981C105.375 266.327 109.706 262.202 112.311 259.991C111.599 259.591 110.887 259.19 110.045 258.846C102.346 265.743 101.88 269.703 101.806 269.891L102.57 273.481C103.356 273.693 104.235 273.943 105.151 274.1L104.16 269.981Z" fill="#F7E4D8"/>
<path d="M77.7745 282.958C68.9061 281.067 62.1139 278.287 54.0483 273.247C46.6904 268.606 45.8155 260.096 52.2715 254.369C52.3082 254.276 52.4379 254.22 52.4379 254.22C53.2703 253.474 54.328 253.255 55.3882 253.58C67.4397 256.99 78.8841 261.674 89.9074 267.707C90.8942 268.22 91.4745 269.218 91.6093 270.252C91.5726 270.345 91.6289 270.477 91.6289 270.477C92.6532 279.156 86.2339 284.789 77.7745 282.958Z" fill="#EADFD1"/>
<path d="M91.8183 270.5C91.855 270.406 91.7987 270.275 91.7987 270.275C91.7008 269.151 91.0843 268.248 90.0985 267.737C79.0862 261.718 67.6532 257.045 55.6138 253.643C55.335 253.529 54.9265 253.47 54.5743 253.543C54.5376 253.637 54.5376 253.637 54.5009 253.73C54.2662 255.152 54.1808 256.744 54.3179 258.318C54.3596 259.311 54.8831 260.175 55.6463 260.704C67.1138 268.861 75.0146 272.09 88.3649 274.076C89.2748 274.231 90.1456 273.937 90.8475 273.248C91.1801 272.95 91.5495 272.559 91.8821 272.261C91.8233 271.586 91.8208 271.043 91.8183 270.5Z" fill="#D1C3B4"/>
<path d="M61.4079 247.386C57.8737 245.94 53.892 248.112 53.371 251.917C53.1362 253.341 53.0507 254.935 53.1879 256.512C53.2296 257.506 53.7534 258.372 54.5171 258.902C65.9913 267.071 73.8967 270.305 87.2548 272.294C88.1653 272.449 89.0365 272.154 89.7389 271.464C91.7358 269.675 93.1747 267.657 94.1485 265.449C95.1224 263.241 94.0038 262.241 91.8205 259.827L61.4079 247.386Z" fill="#DB5955"/>
<path d="M91.8274 259.811C91.8274 259.811 86.9649 255.977 76.8316 252.375C73.0386 251.041 61.5129 247.413 61.5129 247.413C56.4377 245.771 54.3873 247.972 53.5312 251.53C53.316 253.179 53.7518 255.094 55.0928 256.076C67.2773 265.727 75.6534 266.656 90.365 268.765C91.0893 268.845 92.5721 268.365 93.0883 267.6C93.4749 266.889 93.8615 266.179 94.248 265.469C95.1287 263.224 93.9149 261.642 91.8274 259.811Z" fill="#E18668"/>
<path d="M57.3521 260.882L56.2514 257.047C57.6299 252.699 63.3796 249.376 65.2044 248.595C64.3262 248.345 63.4849 248 62.8872 247.865C55.4431 251.913 54.8835 255.832 54.8466 255.926L55.3864 259.531C55.967 259.987 56.678 260.388 57.3521 260.882Z" fill="#F7E4D8"/>
<path d="M91.8165 259.737C91.8165 259.737 91.7228 259.699 91.5724 259.528C86.3076 264.914 85.8921 267.913 85.8182 268.101L86.7165 272.184C86.9038 272.26 87.0344 272.204 87.2218 272.281C87.6333 272.34 88.0819 272.305 88.4367 272.232L87.5951 268.282C88.3681 265.757 90.7479 263.015 92.9061 260.838C92.5486 260.364 92.2478 260.023 91.8165 259.737Z" fill="#F7E4D8"/>
<path d="M71.4285 268.361L70.6078 264.639C72.1176 260.234 78.291 255.007 80.0577 253.546C79.2159 253.202 78.374 252.857 77.4953 252.607C68.9795 259.932 68.3458 264.041 68.3089 264.135L68.7726 267.383C69.6144 267.727 70.4563 268.072 71.4285 268.361Z" fill="#F7E4D8"/>
<path d="M62.6986 261.197C64.116 257.303 70.2859 252.626 73.1695 251.078C72.1982 250.79 71.1335 250.463 70.1056 250.042C60.8258 255.737 60.4533 259.732 60.2861 259.882L60.6928 262.996C61.647 263.605 62.5446 264.081 63.4053 264.652L62.6986 261.197Z" fill="#F7E4D8"/>
<path d="M79.2221 266.837C80.4372 263.183 84.769 259.058 87.3731 256.847C86.6615 256.447 85.9498 256.046 85.1077 255.702C77.4087 262.599 76.9421 266.559 76.8683 266.747L77.6327 270.337C78.4181 270.549 79.2971 270.799 80.2131 270.956L79.2221 266.837Z" fill="#F7E4D8"/>
<path d="M122.314 266.813L113.597 289.066C112.714 291.319 118.224 295.755 125.867 298.886C133.511 302.016 140.454 302.79 141.374 300.443L150.091 278.191L122.314 266.813Z" fill="#332C5E"/>
<path d="M117.214 294.221C118.323 295.001 119.525 295.821 120.99 296.528L131.246 270.425L127.211 268.778L117.214 294.221Z" fill="#474C52"/>
<path d="M133.983 278.248C141.228 281.213 148.12 281.018 149.377 277.811C150.634 274.605 145.78 269.602 138.535 266.637C131.29 263.672 124.398 263.867 123.141 267.074C121.884 270.28 126.738 275.283 133.983 278.248Z" fill="#F2F8FB"/>
<path d="M135.562 274.22C138.438 275.396 141.082 275.554 141.467 274.572C141.852 273.591 139.832 271.841 136.956 270.665C134.08 269.488 131.436 269.33 131.051 270.312C130.666 271.294 132.686 273.043 135.562 274.22Z" fill="#DD7260"/>
<path d="M138.02 267.949C145.464 270.995 149.182 275.559 148.448 277.432C147.751 279.21 141.941 279.983 134.498 276.936C127.054 273.889 123.336 269.325 124.07 267.453C124.804 265.58 130.577 264.902 138.02 267.949ZM138.681 266.263C131.051 263.14 123.753 263.303 122.395 266.767C121.037 270.231 126.207 275.498 133.837 278.621C141.467 281.744 148.765 281.581 150.123 278.117C151.481 274.653 146.404 269.425 138.681 266.263Z" fill="#332C5E"/>
<path d="M141.559 303.368C133.758 306.723 123.656 300.518 123.656 300.518C123.656 300.518 126.164 288.89 133.965 285.535C141.766 282.18 151.868 288.384 151.868 288.384C151.868 288.384 149.36 300.013 141.559 303.368Z" fill="#579485"/>
<path d="M103.205 266.917L94.4888 289.169C93.6061 291.423 99.1157 295.859 106.759 298.989C114.402 302.12 121.346 302.894 122.266 300.547L130.982 278.294L103.205 266.917Z" fill="#332C5E"/>
<path d="M130.362 277.953C129.114 281.136 122.225 281.36 114.968 278.39C107.711 275.42 102.877 270.399 104.125 267.215C105.373 264.032 112.263 263.808 119.52 266.778C126.777 269.748 131.61 274.769 130.362 277.953Z" fill="#F2F8FB"/>
<path d="M122.451 274.714C122.084 275.65 119.429 275.541 116.546 274.361C113.664 273.182 111.669 271.389 112.036 270.454C112.439 269.425 115.058 269.627 117.941 270.806C120.731 271.948 122.818 273.779 122.451 274.714Z" fill="#DD7260"/>
<path d="M118.875 268.147C126.319 271.194 130.037 275.758 129.303 277.63C128.569 279.502 122.796 280.181 115.352 277.134C107.909 274.087 104.191 269.523 104.924 267.651C105.658 265.779 111.431 265.1 118.875 268.147ZM119.535 266.462C111.906 263.338 104.607 263.502 103.25 266.966C101.892 270.429 107.062 275.696 114.692 278.819C122.321 281.943 129.62 281.779 130.977 278.315C132.335 274.852 127.258 269.623 119.535 266.462Z" fill="#332C5E"/>
<path d="M126.471 313.512L50.6759 282.594C42.5948 279.297 38.6114 269.967 41.8113 261.832L147.051 304.761C143.722 312.953 134.552 316.808 126.471 313.512Z" fill="white"/>
<path d="M307.62 260.902C307.62 260.902 308.354 253.853 304.248 252.862C300.238 251.939 294.534 251.142 296.345 249.629C298.156 248.117 296.94 246.449 296.94 246.449L300.615 247.943C300.615 247.943 294.775 242.641 295.416 241.846C296.058 241.05 297.016 241.139 297.016 241.139C297.016 241.139 296.246 239.052 296.291 238.275C296.335 237.499 299.759 239.036 299.759 239.036L299.722 237.761L302.194 241.345L303.127 240.755C303.127 240.755 307.042 244.77 306.815 249.679C306.815 249.679 309.455 245.373 303.648 238.699C303.648 238.699 301.165 234.519 302.196 233.484L303.708 233.818L303.235 230.398C303.235 230.398 304.468 231.122 305.655 233.136C306.842 235.15 308.3 235.152 308.3 235.152C308.3 235.152 303.481 227.706 303.642 225.542L305.418 225.915C305.418 225.915 304.15 223.403 304.683 221.943L306.566 223.493C306.566 223.493 306.853 221.051 307.632 220.573L309.278 222.251C309.278 222.251 309.809 217.63 310.661 216.541C310.661 216.541 312.733 219.255 312.353 220.603L313.982 219.549L314.527 222.359L317.049 219.953C317.049 219.953 317.396 223.652 316.419 225.018L318.507 223.628C318.507 223.628 317.362 232.885 313.645 235.328C313.645 235.328 315.78 236.322 318.928 229.877C318.928 229.877 320.973 228.751 320.184 231.794C319.479 234.822 321.263 233.143 321.263 233.143C321.263 233.143 320.751 239.982 316.489 243.29C312.228 246.597 312.284 250.091 312.284 250.091C312.284 250.091 315.268 246.835 316.844 244.936C318.42 243.038 319.737 240.074 319.737 240.074L320.858 241.159L323.397 237.811C323.397 237.811 324.454 237.455 324.043 239.663C324.043 239.663 326.986 239.832 326.441 240.696C325.897 241.561 323.599 243.244 323.599 243.244L325.511 244.447C325.511 244.447 323.524 248.554 319.729 249.473L322.961 250.361L321.984 251.728C321.984 251.728 323.685 253.737 322.322 254.317C320.875 254.912 315.01 252.605 313.044 254.742C311.148 256.782 308.242 261.562 308.242 261.562L307.62 260.902Z" fill="#497C74"/>
<path d="M302.021 273.818C302.021 273.818 297.485 270.686 295.173 273.308C292.944 275.917 290.156 279.818 289.678 277.938C289.283 276.045 287.535 276.35 287.535 276.35L290.011 274.211C290.011 274.211 283.803 276.576 283.501 275.775C283.199 274.974 283.604 274.306 283.604 274.306C283.604 274.306 281.774 274.114 281.207 273.786C280.64 273.459 283.143 271.485 283.143 271.485L282.216 271.05L285.823 270.59L285.757 269.663C285.757 269.663 290.324 268.267 293.812 270.218C293.812 270.218 291.606 266.678 284.444 268.442C284.444 268.442 280.38 268.725 280.01 267.51L280.874 266.506L278.146 265.532C278.146 265.532 279.16 264.928 281.102 264.759C283.044 264.59 283.644 263.547 283.644 263.547C283.644 263.547 276.236 264.329 274.714 263.4L275.717 262.201C275.717 262.201 273.318 262.194 272.49 261.314L274.337 260.565C274.337 260.565 272.608 259.416 272.583 258.738L274.457 258.155C274.457 258.155 271.206 256.077 270.78 255.042C270.78 255.042 273.527 254.562 274.412 255.261L274.321 253.655L276.648 254.273L275.771 251.524C275.771 251.524 278.693 252.635 279.313 253.807L279.057 251.718C279.057 251.718 285.406 255.985 285.836 259.665C285.836 259.665 287.352 258.461 283.847 253.783C283.847 253.783 283.799 251.914 285.776 253.531C287.669 255.163 287.178 253.201 287.178 253.201C287.178 253.201 292.02 256.109 292.822 260.492C293.624 264.875 296.226 266.127 296.226 266.127C296.226 266.127 294.977 262.675 294.166 260.854C293.438 259.019 291.726 256.929 291.726 256.929L292.934 256.461L291.393 253.317C291.393 253.317 291.507 252.444 293.056 253.539C293.056 253.539 294.34 251.437 294.795 252.125C295.25 252.814 295.546 255.152 295.546 255.152L297.186 254.182C297.186 254.182 299.476 257.195 298.619 260.332L300.596 258.28L301.229 259.535C301.229 259.535 303.366 258.99 303.32 260.279C303.274 261.567 299.225 265.09 300.007 267.258C300.79 269.425 302.608 272.692 302.608 272.692L302.021 273.818Z" fill="#497C74"/>
<path d="M307.578 278.024C307.578 278.024 311.946 274.36 310.112 271.523C308.279 268.687 305.353 264.932 307.253 265.026C309.152 265.121 309.38 263.375 309.38 263.375L310.728 266.382C310.728 266.382 310.253 259.809 311.099 259.747C311.945 259.684 312.456 260.192 312.456 260.192C312.456 260.192 313.198 258.441 313.643 258.022C314.088 257.603 315.242 260.473 315.242 260.473L315.966 259.664L315.357 263.269L316.243 263.455C316.243 263.455 316.24 268.149 313.359 270.956C313.359 270.956 317.37 269.828 317.786 262.418C317.786 262.418 318.675 258.423 319.964 258.453L320.653 259.527L322.326 257.187C322.326 257.187 322.599 258.334 322.134 260.207C321.67 262.08 322.498 262.959 322.498 262.959C322.498 262.959 323.871 255.637 325.22 254.463L326.033 255.771C326.033 255.771 326.693 253.523 327.874 252.89L328.116 254.895C328.116 254.895 329.688 253.511 330.409 253.727L330.471 255.678C330.471 255.678 333.392 253.12 334.571 252.999C334.571 252.999 334.255 255.785 333.255 256.472L334.848 256.791L333.551 258.809L336.449 258.729C336.449 258.729 334.54 261.196 333.222 261.512L335.245 261.841C335.245 261.841 329.292 266.806 325.675 266.158C325.675 266.158 326.403 267.994 331.958 265.828C331.958 265.828 333.828 266.27 331.66 267.672C329.491 269.075 331.557 269.141 331.557 269.141C331.557 269.141 327.313 273.04 322.865 272.537C318.429 272.118 316.48 274.336 316.48 274.336C316.48 274.336 320.114 274.042 322.125 273.776C324.137 273.509 326.622 272.478 326.622 272.478L326.742 273.737L330.156 273.14C330.156 273.14 330.986 273.507 329.457 274.628C329.457 274.628 331.127 276.469 330.295 276.614C329.476 276.843 327.203 276.557 327.203 276.557L327.681 278.436C327.681 278.436 324.141 279.823 321.388 278.171L322.807 280.568L321.488 280.884C321.488 280.884 321.425 283.113 320.151 282.653C318.974 282.262 316.732 277.449 314.36 277.607C311.988 277.766 308.463 278.723 308.463 278.723L307.578 278.024Z" fill="#497C74"/>
<path d="M330.829 261.746C330.259 261.931 329.619 262.214 328.966 262.413C328.077 262.739 327.09 262.997 326.187 263.24C327.999 261.216 329.811 259.191 331.526 257.098C329.923 258.83 328.237 260.576 326.538 262.24C326.72 261.781 326.819 261.336 326.988 260.795C327.228 259.642 327.385 258.505 327.375 257.396C327.218 258.534 327.061 259.671 326.641 260.77C326.303 261.854 325.8 262.967 325.061 263.693L324.782 264.084C324.699 264.098 324.713 264.181 324.629 264.196C322.846 265.874 321.064 267.552 319.267 269.147C319.323 268.967 319.38 268.786 319.436 268.605C319.661 267.883 319.802 267.175 319.86 266.481C320.06 265.08 320.162 263.61 320.265 262.14C320.079 263.625 319.879 265.026 319.597 266.442C319.455 267.15 319.23 267.873 318.992 268.512C318.74 269.069 318.502 269.708 318.139 270.113C317.916 270.323 317.694 270.533 317.387 270.757C315.508 272.367 313.518 273.825 311.514 275.2C311.696 274.741 311.781 274.214 311.963 273.755C312.217 272.685 312.401 271.714 312.572 270.659C312.829 268.564 313.087 266.469 313.178 264.404C313.004 266.484 312.663 268.593 312.308 270.62C312.138 271.674 311.87 272.661 311.603 273.647C311.378 274.369 311.153 275.092 310.832 275.746C310.442 275.985 310.066 276.307 309.677 276.546C308.272 277.389 306.95 278.218 305.545 279.061L303.278 280.397C303.671 279.133 304.078 277.951 304.471 276.687C306.27 270.906 307.791 265.003 309.145 259.13C309.287 258.422 309.442 257.797 309.666 257.074C311.742 255.089 313.734 253.118 315.796 251.049C316.827 250.015 317.844 248.898 318.875 247.864C319.892 246.746 320.826 245.644 321.65 244.389C320.813 245.561 319.712 246.692 318.681 247.727C317.65 248.761 316.536 249.81 315.505 250.844C313.639 252.537 311.773 254.229 309.907 255.922C310.275 253.979 310.573 252.133 310.858 250.204C311.03 248.637 311.203 247.069 311.375 245.502C312.866 244.131 314.162 242.623 315.361 241.047C316.631 239.373 317.79 237.548 318.491 235.546C317.693 237.48 316.437 239.236 315.071 240.842C313.914 242.154 312.743 243.384 311.393 244.559C311.466 243.436 311.54 242.313 311.614 241.19C311.761 238.943 311.811 236.628 311.875 234.397L312.014 234.201C312.728 232.796 313.357 231.404 314.07 229.999C314.379 229.262 314.7 228.608 315.008 227.87C315.316 227.133 315.541 226.411 315.766 225.688C315.541 226.411 315.233 227.148 314.828 227.816C314.506 228.471 314.115 229.222 313.71 229.891C313.109 230.935 312.509 231.98 311.908 233.024C311.908 233.024 311.908 233.024 311.894 232.941C311.854 232.692 311.896 232.428 311.856 232.179C311.881 229.186 311.725 226.138 311.487 223.105C311.532 226.001 311.493 228.912 311.454 231.822C311.179 231.187 310.918 230.635 310.559 230.015C309.855 228.856 308.985 227.727 308.045 226.696C308.902 227.742 309.619 228.983 310.239 230.156C310.514 230.791 310.79 231.426 310.968 231.993C311.16 232.643 311.268 233.307 311.197 233.917L311.247 235.275C311.142 237.258 311.024 239.157 310.92 241.14C310.805 242.014 310.774 242.874 310.66 243.748C310.523 243.43 310.399 243.196 310.261 242.878C309.875 242.091 309.323 241.334 308.868 240.645C307.86 239.198 306.782 237.849 305.635 236.597C306.712 237.946 307.72 239.393 308.561 240.869C309.03 241.641 309.402 242.345 309.788 243.131C310.09 243.933 310.393 244.734 310.348 245.51L310.401 246.355C310.271 247.659 310.044 248.894 309.914 250.198C309.602 251.961 309.29 253.724 308.978 255.486C308.703 254.851 308.345 254.231 307.986 253.61C307.38 252.52 306.606 251.46 305.93 250.468C304.48 248.415 302.878 246.474 301.275 244.534C302.794 246.489 304.327 248.527 305.61 250.609C306.3 251.684 306.907 252.774 307.513 253.863C308.009 254.802 308.436 255.837 308.696 256.902C308.554 257.61 308.343 258.416 308.118 259.138C306.822 264.319 305.332 269.362 303.758 274.42C303.274 274.077 302.873 273.721 302.458 273.281C301.656 272.567 300.867 271.936 300.078 271.305C299.462 269.107 298.749 266.84 298.049 264.656C297.692 263.523 297.239 262.321 296.882 261.187C296.442 260.069 295.989 258.867 295.396 257.86C295.919 258.964 296.359 260.083 296.729 261.3C297.086 262.433 297.456 263.649 297.729 264.797C298.305 266.747 298.811 268.793 299.303 270.757C298.32 269.989 297.254 269.236 296.202 268.566C294.846 267.607 293.503 266.732 292.076 265.871C291.652 264.322 291.047 262.72 290.303 261.312C289.532 259.739 288.607 258.278 287.446 256.943C288.524 258.292 289.379 259.851 290.067 261.439C290.617 262.709 291.014 264.092 291.412 265.474C290.83 265.064 290.179 264.75 289.598 264.339C287.797 263.288 285.914 262.25 283.96 261.31L283.947 261.227C283.173 260.167 282.414 259.189 281.64 258.129C281.212 257.606 280.797 257.166 280.369 256.643C279.954 256.203 279.526 255.68 279.028 255.254C279.526 255.68 279.871 256.217 280.299 256.74C280.644 257.278 281.073 257.801 281.418 258.338C281.97 259.096 282.452 259.951 282.921 260.723C282.838 260.738 282.825 260.655 282.741 260.669C280.414 259.539 278.003 258.423 275.619 257.473C277.683 258.564 279.83 259.641 281.894 260.732C281.381 260.736 280.951 260.726 280.437 260.73C279.257 260.851 278.174 261.041 277.021 261.328C278.187 261.124 279.284 261.017 280.394 260.994C281.505 260.971 282.642 261.114 283.584 261.632L283.945 261.74C285.731 262.709 287.532 263.761 289.332 264.813C289.72 265.087 290.107 265.361 290.481 265.552C290.218 265.512 290.051 265.541 289.801 265.585C289.038 265.633 288.357 265.667 287.607 265.798C286.191 266.045 284.691 266.307 283.301 266.721C284.718 266.473 286.135 266.226 287.578 266.144C288.342 266.096 289.022 266.063 289.716 266.112C290.41 266.162 291.187 266.197 291.671 266.539L291.948 266.662C293.195 267.469 294.441 268.276 295.617 269.181C296.503 269.88 297.388 270.579 298.274 271.279C297.747 271.2 297.163 271.302 296.567 271.321C295.553 271.413 294.456 271.519 293.456 271.694C291.373 272.058 289.29 272.422 287.234 272.952C289.303 272.505 291.4 272.224 293.497 271.943C294.511 271.851 295.607 271.745 296.634 271.736C297.495 271.756 298.355 271.777 299.16 271.978C299.962 272.692 300.848 273.391 301.566 274.12C302.105 274.794 302.644 275.469 303.113 276.241C303.043 276.338 303.07 276.504 303.001 276.602C302.018 279.507 301.022 282.329 299.929 285.082C298.836 287.835 297.577 290.618 296.304 293.317L297.98 294.134C299.24 291.352 300.402 288.501 301.482 285.665C301.776 284.845 302.071 284.024 302.295 283.302C304.912 281.478 307.625 279.723 310.338 277.968C310.644 277.743 310.95 277.519 311.173 277.309C313.394 277.263 315.698 277.202 317.919 277.155C319.112 277.117 320.389 277.065 321.57 276.944C322.75 276.823 324.027 276.771 325.263 276.469C324.013 276.688 322.82 276.726 321.639 276.847C320.446 276.884 319.169 276.937 317.961 276.892C315.99 276.894 313.923 276.829 311.952 276.831C314.095 275.261 316.058 273.637 317.994 271.847C318.217 271.637 318.44 271.427 318.663 271.217C320.287 271.19 321.883 270.996 323.467 270.719C325.217 270.414 326.939 269.942 328.441 269.167C326.842 269.873 325.106 270.262 323.426 270.47C322.079 270.62 320.635 270.702 319.261 270.686C321.281 268.881 323.189 266.924 325.015 264.983C325.085 264.885 325.238 264.773 325.308 264.675L325.391 264.661C326.6 264.193 327.809 263.726 329.019 263.258C329.575 262.99 330.214 262.708 330.77 262.44C331.327 262.171 331.966 261.889 332.509 261.538C332.038 261.279 331.468 261.464 330.829 261.746Z" fill="#579485"/>
<path d="M264.318 270.656C264.097 270.354 263.82 270.232 263.529 270.027C262.781 269.646 262.382 268.777 262.414 267.918C262.4 267.835 262.47 267.737 262.443 267.571C262.558 264.052 260.599 260.982 258.155 260.728C257.891 260.689 257.544 260.665 257.294 260.709C256.793 260.797 256.169 260.65 255.754 260.211C254.109 258.537 252.028 257.878 250.259 258.615C248.491 259.352 247.51 261.232 247.47 263.628C247.482 264.224 247.145 264.795 246.685 265.132C246.462 265.342 246.239 265.551 246.015 265.761C244.45 267.743 245.113 271.297 247.658 273.752C247.755 273.82 247.852 273.889 247.865 273.972C248.474 274.548 248.789 275.431 248.494 276.251C248.367 276.529 248.338 276.876 248.308 277.222C248.341 279.009 250.127 280.488 252.113 280.566C252.975 280.585 253.712 280.371 254.339 280.004C254.966 279.638 255.744 279.672 256.339 280.165C257.626 281.22 259.209 281.454 259.209 281.454C259.209 281.454 260.132 280.268 260.349 278.437C260.478 277.646 260.981 277.046 261.732 276.914C262.483 276.782 263.193 276.402 263.78 275.786C265.329 274.234 265.479 271.989 264.318 270.656Z" fill="#95BD59"/>
<path d="M257.766 275.079C256.812 272.935 256.839 273.101 256.604 272.714L257.729 270.123C257.911 269.663 257.271 269.432 257.088 269.892L256.217 271.926C255.166 269.714 254.557 268.622 253.352 266.522C253.985 268.808 254.273 270.041 255.003 272.395C253.444 271.811 252.736 271.164 252.483 271.722C252.23 272.279 253.178 272.285 255.236 273.295C255.402 273.78 255.374 273.613 256.077 275.801L254.324 275.08C253.865 274.903 253.625 275.544 254.084 275.72L256.394 276.687C257.801 280.548 258.132 281.517 260.043 284.777L261.006 284.353C260.716 283.633 261.123 282.964 257.999 275.979C258.717 274.057 259.388 273.427 258.832 273.181C258.735 273.113 258.342 273.866 257.766 275.079Z" fill="#B2C762"/>
<path d="M231.927 274.908C231.511 274.981 231.191 275.122 230.871 275.263C230.092 275.741 228.955 275.6 228.264 275.039C228.167 274.971 228.071 274.903 227.974 274.835C224.794 272.666 220.674 272.623 218.804 274.826C218.595 275.118 218.385 275.411 218.259 275.688C218.007 276.244 217.477 276.678 216.894 276.78C214.325 277.316 212.348 278.857 211.922 280.977C211.482 283.014 212.679 285.105 214.891 286.591C215.472 287 215.733 287.551 215.757 288.228C215.728 288.575 215.865 288.891 215.919 289.223C216.78 291.884 220.616 293.341 224.407 292.419C224.491 292.405 224.657 292.375 224.741 292.361C225.643 292.117 226.71 292.356 227.262 293.111C227.482 293.413 227.773 293.618 228.063 293.823C229.764 294.802 232.21 294.032 233.536 292.18C234.095 291.4 234.39 290.581 234.352 289.821C234.384 288.963 234.956 288.266 235.776 288.037C237.568 287.467 238.796 286.058 238.796 286.058C238.796 286.058 238.193 284.46 236.701 283.188C236.01 282.627 235.792 281.813 236.087 280.995C236.396 280.259 236.498 279.303 236.266 278.407C235.889 276.087 233.926 274.557 231.927 274.908Z" fill="#95BD59"/>
<path d="M231.963 283.713C229.431 283.389 229.597 283.36 228.988 283.297C227.459 281.266 227.297 280.274 226.672 280.638C226.131 280.987 227.001 281.601 227.95 283.222C224.463 282.81 222.913 282.74 221.196 282.699C222.731 283.197 224.266 283.695 227.668 284.633C226.224 285.736 225.157 286.007 225.501 286.543C225.845 287.078 226.389 286.218 228.65 284.887C229.19 285.048 229.01 284.994 231.5 285.581C230.291 286.557 229.294 286.732 229.638 287.267C229.982 287.803 230.608 286.928 232.551 285.738C239.911 287.346 239.414 286.922 242.362 287.174L242.601 286.026C241.979 285.879 241.165 285.085 232.918 283.802C231.513 282.005 231.351 281.013 230.809 281.362C230.378 281.863 231.235 282.394 231.963 283.713Z" fill="#B2C762"/>
<path d="M248.6 274.081C252.618 278.755 251.619 286.269 246.291 290.87C240.962 295.471 233.335 295.439 229.317 290.765C225.299 286.09 226.298 278.576 231.627 273.975C236.955 269.374 244.582 269.407 248.6 274.081Z" fill="#EADFD1"/>
<path d="M244.765 289.189C248.397 286.022 249.824 281.694 247.951 279.522C246.079 277.35 241.616 278.157 237.984 281.324C234.351 284.492 232.925 288.82 234.797 290.991C236.67 293.163 241.133 292.356 244.765 289.189Z" fill="#D1C3B4"/>
<path d="M249.838 288.428C252.381 291.4 251.803 293.636 250.09 295.217C248.28 296.729 246.016 297.039 243.473 294.067C240.93 291.095 238.978 285.969 240.789 284.457C242.405 282.808 247.198 285.387 249.838 288.428Z" fill="#E7E2D5"/>
<path d="M309.864 271.055C309.217 277.056 303.169 281.44 296.377 280.75C289.586 280.06 284.587 274.619 285.316 268.604C285.963 262.603 292.011 258.218 298.803 258.909C305.594 259.599 310.593 265.04 309.864 271.055Z" fill="#EADFD1"/>
<path d="M305.672 274.187C305.357 276.969 301.305 278.87 296.693 278.398C291.998 277.94 288.488 275.314 288.79 272.449C289.105 269.666 293.158 267.765 297.77 268.238C302.479 268.779 305.988 271.405 305.672 274.187Z" fill="#D1C3B4"/>
<path d="M300.57 281.506C300.167 285.337 298.121 286.463 295.857 286.261C293.594 286.058 291.891 284.561 292.294 280.73C292.697 276.9 295.174 272.108 297.438 272.311C299.701 272.514 300.974 277.675 300.57 281.506Z" fill="#E7E2D5"/>
<path d="M320.398 272.861C321.746 272.199 322.472 270.878 322.324 269.453C322.311 269.37 322.284 269.204 322.27 269.121C322.073 266.339 320.917 263.981 318.731 262.656C314.442 259.993 307.776 262.694 303.967 268.735C300.494 274.207 300.498 280.521 303.745 283.623C304.353 284.199 305.283 284.122 305.867 283.508C310.529 279.024 315.314 275.286 320.398 272.861Z" fill="#DB5955"/>
<path d="M309.945 275.462C312.14 272.094 315.41 270.071 318.337 270.153C318.85 270.148 319.24 269.909 319.519 269.519C319.798 269.129 319.717 268.632 319.47 268.164C319.029 267.56 318.505 266.97 317.84 266.576C314.604 264.587 309.71 266.64 306.844 271.149C304.733 274.502 304.313 278.241 305.577 280.746C305.825 281.214 306.392 281.54 306.975 281.438C307.558 281.336 308.004 280.916 308.077 280.307C308.334 278.728 308.924 277.09 309.945 275.462Z" fill="#BC1B2C"/>
<path d="M316.768 268.12C316.725 268.384 316.446 268.775 316.237 269.068C316.167 269.165 316.084 269.18 316 269.195C315.917 269.209 315.903 269.126 315.806 269.058C315.752 268.725 315.67 268.227 315.713 267.963C315.826 267.601 316.118 267.294 316.382 267.333C316.729 267.358 316.881 267.759 316.768 268.12Z" fill="#E7C644"/>
<path d="M313.714 268.731C313.838 268.966 313.849 269.562 313.834 269.992C313.848 270.075 313.778 270.173 313.694 270.188C313.611 270.202 313.527 270.217 313.43 270.148C313.126 269.86 312.71 269.419 312.586 269.185C312.435 268.784 312.52 268.256 312.84 268.114C313.091 268.071 313.479 268.345 313.714 268.731Z" fill="#E7C644"/>
<path d="M311.086 270.383C311.293 270.603 311.472 271.17 311.54 271.585C311.553 271.668 311.567 271.751 311.497 271.849C311.427 271.946 311.344 271.961 311.247 271.893C310.873 271.702 310.318 271.457 310.111 271.237C309.793 270.865 309.795 270.352 310.018 270.142C310.324 269.918 310.768 270.011 311.086 270.383Z" fill="#E7C644"/>
<path d="M308.859 272.395C309.052 272.531 309.48 273.054 309.715 273.44C309.728 273.523 309.742 273.606 309.672 273.703C309.602 273.801 309.519 273.816 309.436 273.83C308.992 273.737 308.382 273.673 308.175 273.453C307.788 273.179 307.637 272.779 307.846 272.486C307.958 272.125 308.471 272.121 308.859 272.395Z" fill="#E7C644"/>
<path d="M307.296 275.319C307.476 275.373 307.876 275.729 308.083 275.949C308.18 276.017 308.194 276.1 308.124 276.198C308.137 276.281 308.054 276.295 307.971 276.31C307.638 276.368 307.125 276.372 306.932 276.235C306.572 276.128 306.338 275.742 306.477 275.547C306.603 275.27 306.922 275.128 307.296 275.319Z" fill="#E7C644"/>
<path d="M306.494 278.199C306.673 278.252 306.95 278.374 307.143 278.511C307.143 278.511 307.24 278.579 307.17 278.677C307.184 278.759 307.101 278.774 307.101 278.774C306.851 278.818 306.532 278.959 306.352 278.905C306.089 278.865 305.882 278.646 305.938 278.466C305.995 278.286 306.23 278.159 306.494 278.199Z" fill="#E7C644"/>
<path d="M272.763 269.496C271.234 266.948 268.356 265.574 265.058 265.297C264.795 265.258 264.448 265.233 264.185 265.194C262.772 264.929 261.425 265.591 260.865 266.883C258.489 272.246 253.906 278.251 247.602 284.726C246.794 285.55 246.831 286.823 247.646 287.619C251.5 291.296 258.931 291.192 265.378 287.165C272.673 282.563 275.919 274.66 272.763 269.496Z" fill="#DB5955"/>
<path d="M257.666 280.32C261.783 277.723 264.146 273.816 264.093 270.332C264.082 269.738 264.418 269.168 264.891 268.915C265.363 268.661 266.043 268.627 266.527 268.968C267.287 269.431 267.908 270.089 268.376 270.858C270.798 274.692 268.329 280.577 262.891 284.002C258.843 286.502 254.375 286.945 251.304 285.44C250.653 285.128 250.379 284.495 250.438 283.803C250.58 283.097 251.096 282.58 251.775 282.546C253.704 282.293 255.719 281.513 257.666 280.32Z" fill="#BC1B2C"/>
<path d="M266.468 272.049C266.218 272.093 265.677 272.443 265.288 272.681C265.205 272.695 265.149 272.875 265.163 272.958C265.176 273.041 265.273 273.109 265.369 273.178C265.812 273.271 266.338 273.349 266.671 273.291C267.17 273.204 267.448 272.815 267.394 272.483C267.423 272.138 266.967 271.962 266.468 272.049Z" fill="#E7C644"/>
<path d="M265.737 275.856C265.46 275.733 264.684 275.699 264.171 275.703C264.088 275.717 263.921 275.746 263.948 275.912C263.975 276.078 263.906 276.176 264.002 276.244C264.32 276.615 264.831 277.123 265.191 277.23C265.744 277.475 266.23 277.305 266.426 276.929C266.538 276.569 266.29 276.1 265.737 275.856Z" fill="#E7C644"/>
<path d="M263.787 279.016C263.497 278.811 262.859 278.58 262.319 278.419C262.222 278.35 262.069 278.462 261.986 278.477C261.902 278.491 261.93 278.658 261.957 278.824C262.205 279.292 262.48 279.927 262.77 280.133C263.171 280.49 263.782 280.554 264.074 280.247C264.367 279.939 264.188 279.373 263.787 279.016Z" fill="#E7C644"/>
<path d="M261.326 281.665C261.105 281.362 260.523 280.951 260.135 280.677C260.038 280.608 259.955 280.623 259.788 280.652C259.718 280.75 259.648 280.847 259.662 280.93C259.743 281.429 259.866 282.177 260.087 282.48C260.418 282.935 260.973 283.18 261.28 282.955C261.669 282.716 261.658 282.12 261.326 281.665Z" fill="#E7C644"/>
<path d="M257.868 283.458C257.744 283.223 257.412 282.768 257.108 282.48C257.011 282.411 256.927 282.426 256.844 282.44C256.76 282.455 256.69 282.552 256.704 282.636C256.688 283.066 256.617 283.677 256.741 283.911C256.892 284.312 257.28 284.587 257.614 284.528C257.934 284.387 258.033 283.942 257.868 283.458Z" fill="#E7C644"/>
<path d="M254.451 284.474C254.424 284.307 254.189 283.921 254.065 283.686C254.051 283.603 253.968 283.618 253.885 283.632C253.801 283.647 253.801 283.647 253.731 283.744C253.689 284.008 253.59 284.453 253.617 284.619C253.671 284.952 253.879 285.172 254.129 285.128C254.366 285.001 254.492 284.723 254.451 284.474Z" fill="#E7C644"/>
<path d="M290.858 277.938C290.85 271.199 285.36 265.809 278.596 265.9C271.832 265.99 266.355 271.527 266.363 278.265C266.372 285.004 271.862 290.394 278.626 290.303C285.39 290.213 290.867 284.677 290.858 277.938Z" fill="#6EAC69"/>
<path d="M289.575 278.71C289.994 272.583 285.428 267.333 279.377 266.983C273.326 266.634 268.081 271.318 267.662 277.446C267.243 283.573 271.809 288.823 277.86 289.172C283.911 289.521 289.156 284.837 289.575 278.71Z" fill="#E7FFA8"/>
<path d="M283.648 277.22C284.095 279.958 282.213 282.592 279.465 283.072C276.717 283.552 274.102 281.705 273.655 278.966C273.207 276.227 275.09 273.594 277.838 273.114C280.586 272.633 283.2 274.481 283.648 277.22Z" fill="#B4D16F"/>
<path d="M278.468 281.124C278.413 280.792 278.568 280.166 278.667 279.721C278.654 279.638 278.807 279.526 278.891 279.511C278.974 279.497 279.071 279.565 279.168 279.634C279.403 280.02 279.748 280.558 279.803 280.891C279.884 281.389 279.618 281.863 279.285 281.922C278.867 281.995 278.563 281.706 278.468 281.124Z" fill="#E7FFA8"/>
<path d="M277.513 275.378C277.568 275.711 277.913 276.249 278.148 276.635C278.162 276.718 278.342 276.772 278.426 276.758C278.509 276.743 278.579 276.645 278.649 276.548C278.748 276.103 278.903 275.477 278.849 275.145C278.767 274.646 278.366 274.289 278.032 274.347C277.614 274.42 277.432 274.879 277.513 275.378Z" fill="#E7FFA8"/>
<path d="M280.654 280.403C280.364 280.197 280.019 279.66 279.784 279.274C279.771 279.191 279.757 279.108 279.827 279.011C279.897 278.913 279.98 278.899 280.063 278.884C280.507 278.977 281.13 279.124 281.421 279.33C281.808 279.604 281.973 280.087 281.764 280.379C281.555 280.672 281.041 280.676 280.654 280.403Z" fill="#E7FFA8"/>
<path d="M275.909 277.022C276.2 277.227 276.823 277.374 277.267 277.467C277.35 277.453 277.433 277.438 277.503 277.341C277.573 277.243 277.559 277.16 277.546 277.077C277.311 276.691 276.967 276.154 276.676 275.949C276.289 275.675 275.776 275.68 275.567 275.972C275.261 276.196 275.425 276.68 275.909 277.022Z" fill="#E7FFA8"/>
<path d="M281.678 278.339C281.346 278.397 280.723 278.25 280.28 278.157C280.197 278.172 280.087 278.021 280.073 277.938C280.06 277.855 280.129 277.758 280.199 277.66C280.588 277.422 281.129 277.072 281.462 277.014C281.961 276.927 282.43 277.185 282.485 277.517C282.539 277.848 282.177 278.252 281.678 278.339Z" fill="#E7FFA8"/>
<path d="M275.868 279.338C276.201 279.28 276.743 278.93 277.131 278.692C277.214 278.677 277.27 278.497 277.257 278.414C277.243 278.331 277.147 278.263 277.05 278.195C276.607 278.102 275.984 277.955 275.652 278.013C275.153 278.1 274.791 278.504 274.845 278.835C274.9 279.166 275.37 279.425 275.868 279.338Z" fill="#E7FFA8"/>
<path d="M280.892 276.163C280.683 276.455 280.141 276.806 279.752 277.045C279.669 277.06 279.585 277.074 279.488 277.006C279.392 276.937 279.378 276.854 279.364 276.771C279.463 276.327 279.618 275.703 279.827 275.41C280.106 275.02 280.592 274.85 280.883 275.055C281.16 275.177 281.241 275.675 280.892 276.163Z" fill="#E7FFA8"/>
<path d="M277.503 280.942C277.712 280.65 277.867 280.025 277.966 279.581C277.952 279.498 277.938 279.415 277.842 279.347C277.745 279.278 277.662 279.293 277.578 279.307C277.189 279.546 276.647 279.897 276.438 280.19C276.159 280.58 276.157 281.092 276.447 281.297C276.738 281.503 277.224 281.332 277.503 280.942Z" fill="#E7FFA8"/>
<path d="M256.632 332.355L299.16 324.982C301.402 324.593 303.536 323.541 305.241 321.966C317.402 310.73 323.942 293.9 321.336 276.522L220.166 294.061C223.354 311.338 234.921 325.029 249.922 331.556C252.037 332.469 254.389 332.744 256.632 332.355Z" fill="white"/>
<path d="M321.763 286.85C321.793 286 321.822 285.149 321.838 284.216L222.091 301.374C222.393 302.167 222.709 303.043 223.012 303.837L321.763 286.85Z" fill="#ABE0E3"/>
<path d="M317.314 305.205C319.009 301.516 320.248 297.652 320.962 293.708L226.007 310.103C228.046 313.656 230.446 316.807 233.15 319.736L317.314 305.205Z" fill="#ABE0E3"/>
<path d="M188.754 310.904C188.115 310.254 187.293 309.883 186.38 309.883C185.466 309.883 184.553 310.254 184.005 310.904C183.457 311.553 183 312.481 183 313.317C183 314.245 183.365 315.173 184.005 315.729C184.644 316.379 185.466 316.75 186.38 316.75C187.293 316.75 188.206 316.379 188.754 315.729C189.394 315.173 189.759 314.152 189.759 313.317C189.668 312.481 189.394 311.553 188.754 310.904Z" fill="#FFF1CE"/>
<path d="M197.754 245.879C197.115 245.23 196.293 244.858 195.38 244.858C194.466 244.858 193.553 245.23 193.005 245.879C192.457 246.529 192 247.457 192 248.292C192 249.22 192.365 250.148 193.005 250.705C193.644 251.355 194.466 251.726 195.38 251.726C196.293 251.726 197.206 251.355 197.754 250.705C198.394 250.148 198.759 249.127 198.759 248.292C198.668 247.457 198.394 246.529 197.754 245.879Z" fill="#FFF1CE"/>
<path d="M265.754 228.607C265.115 227.958 264.293 227.586 263.38 227.586C262.466 227.586 261.553 227.958 261.005 228.607C260.457 229.257 260 230.185 260 231.02C260 231.948 260.365 232.876 261.005 233.433C261.644 234.083 262.466 234.454 263.38 234.454C264.293 234.454 265.206 234.083 265.754 233.433C266.394 232.876 266.759 231.855 266.759 231.02C266.668 230.185 266.394 229.257 265.754 228.607Z" fill="#FFF1CE"/>
<path d="M64.7544 372.88C64.1151 372.231 63.293 371.859 62.3796 371.859C61.4662 371.859 60.5528 372.231 60.0047 372.88C59.4567 373.53 59 374.458 59 375.293C59 376.221 59.3654 377.149 60.0047 377.706C60.6441 378.356 61.4662 378.727 62.3796 378.727C63.293 378.727 64.2064 378.356 64.7544 377.706C65.3938 377.149 65.7592 376.128 65.7592 375.293C65.6678 374.458 65.3938 373.53 64.7544 372.88Z" fill="#FFF1CE"/>
<path d="M159.736 181.446C149.853 186.419 138.743 188.857 127.484 188.218C121.05 187.853 116.097 182.24 116.517 175.724C116.938 169.208 122.53 164.143 128.963 164.508C143.306 165.284 157.142 158.322 165.26 146.244C168.888 140.816 176.233 139.371 181.563 142.994C186.893 146.616 188.252 154.038 184.624 159.466C178.184 169.011 169.619 176.473 159.736 181.446Z" fill="#EDC75E"/>
<path d="M160.492 182.995C149.085 188.733 136.365 191.53 123.366 190.754C117.828 190.389 113.627 185.638 113.904 179.984C114.315 174.375 119.049 170.08 124.634 170.31C143.484 171.406 161.807 162.188 172.417 146.272C175.501 141.569 181.815 140.306 186.478 143.475C191.097 146.553 192.287 152.932 189.113 157.68C181.813 168.667 171.809 177.301 160.492 182.995Z" fill="#E18668"/>
<path d="M160.506 183.022C171.91 177.287 181.82 168.704 189.117 157.722C189.977 156.501 190.437 155.145 190.763 153.744C190.055 152.975 189.301 152.341 188.368 151.798C182.859 148.493 175.646 150.432 172.332 156.037C164.977 168.511 151.587 176.369 137.243 176.494C130.764 176.489 125.531 181.821 125.47 188.377C125.461 189.281 125.499 190.05 125.67 190.864C137.82 191.28 149.732 188.44 160.506 183.022Z" fill="#DB5955"/>
<path d="M166.376 195.112C156.493 200.085 145.383 202.523 134.124 201.884C127.69 201.519 122.737 195.906 123.157 189.39C123.577 182.874 129.169 177.809 135.603 178.174C149.946 178.95 163.781 171.988 171.899 159.91C175.528 154.481 182.873 153.037 188.203 156.659C193.533 160.282 194.892 167.704 191.263 173.132C184.824 182.677 176.258 190.139 166.376 195.112Z" fill="#EDC75E"/>
<path d="M154.468 166.867L153.106 164.052C152.114 164.551 151.123 165.05 150.132 165.549L151.495 168.364C151.89 169.182 152.829 169.5 153.64 169.092C154.541 168.638 154.864 167.685 154.468 166.867Z" fill="#DB5955"/>
<path d="M131.389 174.019C132.2 173.611 132.523 172.658 132.127 171.84L131.38 170.296C130.169 170.341 129.002 170.477 127.747 170.431L129.109 173.246C129.639 174.109 130.578 174.428 131.389 174.019Z" fill="#DB5955"/>
<path d="M162.527 162.821C163.338 162.413 163.661 161.46 163.265 160.643L161.991 158.009C161.131 158.78 160.228 159.461 159.281 160.051L160.292 162.14C160.688 162.957 161.716 163.23 162.527 162.821Z" fill="#DB5955"/>
<path d="M143.427 172.401C144.238 171.992 144.561 171.039 144.165 170.222L143.155 168.133C142.076 168.45 140.997 168.768 139.918 169.085L141.192 171.719C141.678 172.491 142.616 172.809 143.427 172.401Z" fill="#DB5955"/>
<path d="M171.112 154.097C171.923 153.688 172.246 152.735 171.851 151.918L170.488 149.102C169.717 150.055 168.945 151.008 168.174 151.962L168.921 153.506C169.363 154.187 170.301 154.505 171.112 154.097Z" fill="#DB5955"/>
<path d="M154.338 170.297C152.992 170.973 151.472 171.062 150.137 170.61C149.024 170.157 147.724 170.698 147.177 171.872C146.584 173.181 145.37 174.129 143.936 174.625C142.502 175.12 140.985 174.983 139.741 174.26C138.674 173.672 137.376 173.987 136.608 174.935C135.838 176.108 134.446 176.92 132.97 177.1C131.495 177.279 129.98 176.917 128.871 176.012C128.162 175.469 128.082 174.385 128.625 173.663C129.168 172.941 130.24 172.851 130.95 173.394C131.349 173.756 131.973 173.892 132.599 173.802C133.225 173.712 133.72 173.351 133.991 172.99C135.755 170.642 138.843 169.877 141.331 171.325C141.82 171.641 142.4 171.687 142.982 171.507C143.564 171.327 143.969 171.011 144.243 170.424C145.562 167.85 148.521 166.588 151.236 167.584C152.305 167.946 153.651 167.27 153.929 166.231C154.803 163.431 157.587 161.807 160.397 162.307C160.887 162.397 161.513 162.308 162.008 161.947C162.502 161.586 162.82 161.089 162.87 160.502C163.254 157.611 165.819 155.535 168.632 155.583C169.212 155.629 169.751 155.358 170.202 154.907C170.652 154.455 170.836 153.913 170.886 153.326C170.895 152.423 171.617 151.61 172.51 151.611C173.403 151.612 174.2 152.335 174.192 153.239C174.223 154.684 173.585 156.129 172.548 157.212C171.51 158.296 170.076 158.791 168.647 158.835C167.397 158.789 166.405 159.737 166.215 160.956C166.023 162.402 165.207 163.711 163.949 164.568C162.69 165.425 161.302 165.786 159.831 165.513C158.627 165.332 157.504 166.008 157.091 167.228C156.588 168.492 155.594 169.666 154.338 170.297Z" fill="#EDC75E"/>
<path d="M275.415 365.637C278.127 363.96 281.243 362.712 284.335 361.648C289.667 359.681 294.897 357.794 300.23 355.827C312.634 351.295 325.232 346.697 338.301 344.124C342.275 343.368 345.621 341.779 349.601 341.678C326.925 353.465 301.355 361.303 275.415 365.637Z" fill="#7CA661"/>
<path d="M270.596 367.242C278.428 363.844 286.025 360.132 293.488 356.028C296.872 354.161 300.359 352.216 303.284 349.631C306.414 346.888 308.891 343.494 311.682 340.517C316.715 335.234 322.885 331.138 329.043 327.133C328.12 333.453 324.912 338.896 320.441 343.415C315.879 347.922 310.452 351.28 304.971 354.351C301.883 356.072 298.807 357.701 295.508 358.925C293.586 359.499 275.166 367.596 270.596 367.242Z" fill="#AEDC90"/>
<path d="M285.051 360.556C285.051 360.556 284.284 362.876 285.263 363.852C285.263 363.852 267.35 370.981 263.327 369.303C259.395 367.637 261.816 365.359 264.341 365.803C266.866 366.247 280.304 362.978 285.051 360.556Z" fill="white"/>
<rect x="120" y="812" width="134" height="5" rx="2.5" fill="#E0E0E0"/>
</g>
<defs>
<clipPath id="clip0_1_2860">
<rect width="375" height="825" fill="white"/>
</clipPath>
</defs>
</svg>
